<?xml version="1.0" standalone="no"?>
<!DOCTYPE svg PUBLIC "-//W3C//DTD SVG 20010904//EN"
 "http://www.w3.org/TR/2001/REC-SVG-20010904/DTD/svg10.dtd">
<svg version="1.0" xmlns="http://www.w3.org/2000/svg"
 width="16.000000pt" height="16.000000pt" viewBox="0 0 16.000000 16.000000"
 preserveAspectRatio="xMidYMid meet">
<metadata>
Created by potrace 1.11, written by Peter Selinger 2001-2013
</metadata>
<g transform="translate(0.000000,16.000000) scale(0.006015,-0.006015)"
fill="#000000" stroke="none">
<path d="M16 2644 c-14 -14 -16 -147 -16 -1314 0 -1167 2 -1300 16 -1314 14
-14 147 -16 1314 -16 1167 0 1300 2 1314 16 14 14 16 147 16 1314 0 1167 -2
1300 -16 1314 -14 14 -147 16 -1314 16 -1167 0 -1300 -2 -1314 -16z m798 -330
c14 -14 16 -96 16 -752 0 -466 -4 -754 -11 -782 -5 -25 -20 -61 -33 -80 -13
-19 -27 -46 -31 -60 -8 -27 -119 -140 -137 -140 -6 0 -42 -16 -81 -36 -66 -33
-80 -37 -196 -44 -172 -12 -179 -7 -177 129 2 103 17 121 101 121 74 0 102 13
162 76 40 43 54 66 62 105 7 33 11 290 11 749 0 622 2 700 16 714 23 23 275
23 298 0z m534 -429 c33 -28 56 -77 67 -145 4 -25 21 -69 38 -99 16 -29 36
-83 44 -120 7 -36 25 -83 38 -104 14 -20 32 -67 41 -105 8 -37 29 -90 45 -118
16 -28 35 -80 42 -115 8 -36 25 -85 39 -109 14 -25 29 -61 33 -80 18 -91 70
-108 93 -30 8 25 27 72 43 105 16 33 34 85 40 115 6 30 24 78 40 106 16 28 36
82 44 120 9 38 27 86 41 107 13 20 31 67 40 105 8 37 28 90 44 117 15 28 33
77 40 110 15 75 46 133 82 151 19 10 66 14 161 14 120 0 136 -2 151 -19 21
-23 15 -52 -20 -93 -12 -16 -30 -59 -39 -100 -9 -40 -29 -95 -45 -123 -15 -27
-34 -78 -41 -113 -6 -35 -23 -80 -36 -99 -14 -20 -33 -72 -44 -115 -11 -44
-31 -96 -44 -116 -13 -21 -31 -68 -40 -107 -9 -38 -29 -92 -45 -120 -15 -27
-33 -77 -40 -110 -7 -33 -24 -80 -40 -105 -15 -25 -35 -80 -45 -123 -13 -60
-24 -85 -49 -112 -19 -20 -44 -35 -57 -36 -13 0 -103 -1 -200 -1 -149 0 -180
2 -202 17 -31 20 -63 84 -72 145 -4 25 -20 69 -36 98 -16 29 -36 83 -45 120
-8 37 -27 87 -41 111 -14 24 -34 78 -44 118 -10 41 -29 88 -41 105 -12 17 -29
64 -39 105 -10 41 -29 94 -43 118 -14 24 -33 74 -42 112 -8 37 -26 84 -39 105
-13 20 -33 73 -44 118 -13 50 -31 94 -46 112 -29 35 -33 82 -7 97 9 6 79 11
154 11 131 0 138 -1 166 -25z"/>
</g>
</svg>
